<svg data-name="Layer 1" xmlns="http://www.w3.org/2000/svg" viewBox="0 0 30.16 29.64"><path d="M29.09 22.22c-1.06-2-4.76-4.2-4.93-4.3a2.92 2.92 0 00-1.43-.41 1.8 1.8 0 00-1.6.89 16.24 16.24 0 01-1.38 1.52 2.29 2.29 0 01-3.34-.33l-6.1-6.1a2.3 2.3 0 01-.31-3.34 17.72 17.72 0 011.5-1.38 1.74 1.74 0 00.82-1.06 2.61 2.61 0 00-.35-2c-.09-.13-2.27-3.84-4.29-4.9a2.59 2.59 0 00-3.07.46L3.26 2.62A7.39 7.39 0 001 9.8c.51 2.19 2 4.52 4.4 6.93l7.81 7.81c3 3.05 6 4.6 8.64 4.6a7.61 7.61 0 005.47-2.5l1.35-1.34a2.61 2.61 0 00.42-3.08z" fill="#b4c5cf"/></svg>