<svg data-name="Layer 1" xmlns="http://www.w3.org/2000/svg" viewBox="0 0 30.16 29.64"><path d="M29.45 13.26a12.81 12.81 0 01-.81 4.64 7.74 7.74 0 01-2.28 3.3 5.3 5.3 0 01-3.44 1.2 4.22 4.22 0 01-2.3-.63 3.59 3.59 0 01-1.45-1.64h-.28a6 6 0 01-4.84 2.27 6.49 6.49 0 01-4.91-1.88 7.09 7.09 0 01-1.79-5.13 7.92 7.92 0 012.35-6 8.5 8.5 0 016.16-2.27 20.58 20.58 0 013.34.29 18 18 0 013 .69l-.4 8.61c0 1.63.44 2.45 1.33 2.45s1.35-.55 1.8-1.65a11.51 11.51 0 00.67-4.3 10.3 10.3 0 00-1.18-5A8 8 0 0021.1 4.9a10.19 10.19 0 00-4.88-1.14A12.44 12.44 0 0010 5.22a9.74 9.74 0 00-4 4.21 13.8 13.8 0 00-1.4 6.37q0 4.86 2.59 7.45t7.53 2.6a22.36 22.36 0 004.1-.42 26.31 26.31 0 004.4-1.2v3.38a21.12 21.12 0 01-8.36 1.6q-6.69 0-10.43-3.52T.71 15.9A16.38 16.38 0 012.62 8a13.8 13.8 0 015.44-5.55 16 16 0 018.12-2A14.74 14.74 0 0123.1 2a11.16 11.16 0 014.7 4.5 13.49 13.49 0 011.65 6.76zm-18 2.2q0 3.72 3 3.72a2.83 2.83 0 002.41-1.12 7.14 7.14 0 001-3.64l.23-3.89a10.28 10.28 0 00-2-.19 4.38 4.38 0 00-3.43 1.37 5.48 5.48 0 00-1.23 3.75z" fill="#b4c5cf"/></svg>