<svg id="Layer_1" data-name="Layer 1" xmlns="http://www.w3.org/2000/svg" viewBox="0 0 32.4 28.49"><defs><style>.cls-1{fill:#b4c5cf;}</style></defs><g id="c14_house" data-name="c14 house"><path class="cls-1" d="M4.72,27.37a.66.66,0,0,0,.66.7h7.86V21.62s-.11-1.07.92-1.07h3.27a1,1,0,0,1,1.14,1.07V28h7.7a.81.81,0,0,0,.82-.87V15.29L16.24,5.64,4.72,15.29Z"/><path class="cls-1" d="M.48,14.39s1,1.8,3.11,0L16.34,3.61l12,10.71c2.47,1.78,3.39,0,3.39,0L16.34.42Z"/><polygon class="cls-1" points="28 3.58 24.93 3.58 24.94 7.31 28 9.91 28 3.58"/></g></svg>