<svg id="Layer_1" data-name="Layer 1" xmlns="http://www.w3.org/2000/svg" viewBox="0 0 30.16 29.64"><defs><style>.cls-1{fill:#b4c5cf;}</style></defs><path class="cls-1" d="M29.45,13.26a12.81,12.81,0,0,1-.81,4.64,7.74,7.74,0,0,1-2.28,3.3,5.3,5.3,0,0,1-3.44,1.2,4.22,4.22,0,0,1-2.3-.63,3.59,3.59,0,0,1-1.45-1.64h-.28a6,6,0,0,1-4.84,2.27,6.49,6.49,0,0,1-4.91-1.88,7.09,7.09,0,0,1-1.79-5.13,7.92,7.92,0,0,1,2.35-6,8.5,8.5,0,0,1,6.16-2.27,20.58,20.58,0,0,1,3.34.29,18,18,0,0,1,3,.69l-.4,8.61c0,1.63.44,2.45,1.33,2.45s1.35-.55,1.8-1.65a11.51,11.51,0,0,0,.67-4.3,10.3,10.3,0,0,0-1.18-5A8,8,0,0,0,21.1,4.9a10.19,10.19,0,0,0-4.88-1.14A12.44,12.44,0,0,0,10,5.22,9.74,9.74,0,0,0,6,9.43a13.8,13.8,0,0,0-1.4,6.37q0,4.86,2.59,7.45t7.53,2.6a22.36,22.36,0,0,0,4.1-.42,26.31,26.31,0,0,0,4.4-1.2v3.38a21.12,21.12,0,0,1-8.36,1.6q-6.69,0-10.43-3.52T.71,15.9A16.38,16.38,0,0,1,2.62,8,13.8,13.8,0,0,1,8.06,2.45a16,16,0,0,1,8.12-2A14.74,14.74,0,0,1,23.1,2a11.16,11.16,0,0,1,4.7,4.5A13.49,13.49,0,0,1,29.45,13.26Zm-18,2.2q0,3.72,3,3.72a2.83,2.83,0,0,0,2.41-1.12,7.14,7.14,0,0,0,1-3.64l.23-3.89a10.28,10.28,0,0,0-2-.19,4.38,4.38,0,0,0-3.43,1.37A5.48,5.48,0,0,0,11.43,15.46Z"/></svg>