<svg id="Layer_1" data-name="Layer 1" xmlns="http://www.w3.org/2000/svg" viewBox="0 0 30.16 29.64"><defs><style>.cls-1{fill:#b4c5cf;}</style></defs><path class="cls-1" d="M29.09,22.22c-1.06-2-4.76-4.2-4.93-4.3a2.92,2.92,0,0,0-1.43-.41,1.8,1.8,0,0,0-1.6.89,16.24,16.24,0,0,1-1.38,1.52,2.29,2.29,0,0,1-3.34-.33l-6.1-6.1A2.3,2.3,0,0,1,10,10.15,17.72,17.72,0,0,1,11.5,8.77a1.74,1.74,0,0,0,.82-1.06,2.61,2.61,0,0,0-.35-2C11.88,5.58,9.7,1.87,7.68.81a2.59,2.59,0,0,0-3.07.46L3.26,2.62A7.39,7.39,0,0,0,1,9.8c.51,2.19,2,4.52,4.4,6.93l7.81,7.81c3,3.05,6,4.6,8.64,4.6h0a7.61,7.61,0,0,0,5.47-2.5l1.35-1.34A2.61,2.61,0,0,0,29.09,22.22Z"/></svg>